<?xml version="1.0" encoding="UTF-8"?>
<svg width="36px" height="37px" viewBox="0 0 36 37" version="1.1" xmlns="http://www.w3.org/2000/svg" xmlns:xlink="http://www.w3.org/1999/xlink">
    <title>收起</title>
    <g id="确认稿" stroke="none" stroke-width="1" fill="none" fill-rule="evenodd">
        <g id="01-报表页-少筛选" transform="translate(-194.000000, -76.000000)" fill="#0D4DED" fill-rule="nonzero" stroke="#0D4DED" stroke-width="0.3">
            <g id="收起" transform="translate(194.000000, 76.000000)">
                <g id="caozuo-zhankai" transform="translate(9.000000, 10.807663)">
                    <path d="M0,0.75 C0,0.335786438 0.335786438,0 0.75,0 L17.25,0 C17.6642136,0 18,0.335786438 18,0.75 C18,1.16421356 17.6642136,1.5 17.25,1.5 L0.75,1.5 C0.336,1.5 0,1.167 0,0.75 Z M0,7.5 C0,7.086 0.33675,6.75 0.75525,6.75 L10.49475,6.75 C10.91175,6.75 11.25,7.083 11.25,7.5 C11.25,7.914 10.91325,8.25001351 10.49475,8.25001351 L0.75525,8.25001351 C0.555490095,8.25119748 0.363489896,8.1727328 0.221743971,8.0319722 C0.079998047,7.8912116 0.00019597476,7.6997634 0,7.5 Z M0,14.25 C0,13.8357864 0.335786438,13.5 0.75,13.5 L17.25,13.5 C17.6642136,13.5 18,13.8357864 18,14.25 C18,14.6642136 17.6642136,15 17.25,15 L0.75,15 C0.336,15 0,14.667 0,14.25 Z M17.7893058,4.28025 C18.073535,3.98596583 18.0694701,3.51818642 17.7801698,3.22888607 C17.4908694,2.93958572 17.02309,2.93552084 16.7288058,3.21975 L12.9788058,6.96975 C12.6860194,7.26262489 12.6860194,7.73737511 12.9788058,8.03025 L16.7288058,11.78025 C17.02309,12.0644792 17.4908694,12.0604143 17.7801698,11.7711139 C18.0694701,11.4818136 18.073535,11.0140342 17.7893058,10.71975 L14.5695558,7.5 L17.7893058,4.28025 Z" id="形状"></path>
                </g>
            </g>
        </g>
    </g>
</svg>